<?xml version="1.0" encoding="utf-8"?>
<!-- Generator: Adobe Illustrator 23.0.1, SVG Export Plug-In . SVG Version: 6.00 Build 0)  -->
<svg version="1.1" id="Layer_1" xmlns="http://www.w3.org/2000/svg" xmlns:xlink="http://www.w3.org/1999/xlink" x="0px" y="0px"
	 viewBox="0 0 171.6 102.2" style="enable-background:new 0 0 171.6 102.2;" xml:space="preserve">
<style type="text/css">
	.st0{enable-background:new    ;}
	.st1{fill:#505050;}
	.st2{fill:#FFC800;}
</style>
<title>Logo</title>
<g id="ffbf5ab5-4c07-4652-ad2a-2f131f2f80dd">
	<g id="ad3ad5b3-1c4a-48b9-8a9a-d5b0002fff3f">
		<g class="st0">
			<path class="st1" d="M55.1,2.6v1.8h-3.9v10.3h-2V4.4h-3.8V2.6H55.1z"/>
			<path class="st1" d="M58.9,2.6v5.3h6.4V2.6h2v12.1h-2v-5h-6.4v5h-2V2.6H58.9z"/>
			<path class="st1" d="M79.2,2.6v1.8h-6.6v3.3h5.9v1.8h-5.9v3.3h6.8v1.8h-8.9V2.6H79.2z"/>
		</g>
		<path class="st2" d="M28.3,1.4c6.9,0,13.1,2.9,13.1,8.9c0,4.4-3.2,8.9-6.5,8.9c-2.9,0-5.7-2.1-4.9-5.5c2.3-0.5,2.9-3.9,2.9-6.1
			c0-3.9-2.4-5.3-5.8-5.3c-3.9,0-7.6,2.2-7.6,6.2c0,8.8,21.6,10.7,21.6,25.4c0,10.5-11,19.3-24.2,19.3C5.6,53.1,0,46.5,0,39.8
			c-0.1-6.3,5-11.5,11.3-11.5c0.1,0,0.3,0,0.4,0c5.6,0,11.6,3.3,11.6,9.1c0,3.9-3,7.1-7.5,7.1c-3.3,0-6.1-2.7-5.1-6.2
			c2.9-0.1,5.1-2.5,5-5.4c0,0,0,0,0,0c0-3-2.7-4.2-4.8-4.2c-4.8,0-8.5,5.1-8.5,10.9c0,6.1,3.6,13,14.7,13c10.3,0,15.6-5.7,15.6-11.4
			c0-10.7-23-11.6-23-24C9.7,8.6,19.5,1.4,28.3,1.4z"/>
		<path class="st2" d="M61.8,23.4c0-1.9-0.8-3.3-2.7-3.3c-4.3,0-6.8,6.9-6.8,11.8c0,4.7,2.1,9,7.2,9c2.9-0.1,5.6-1.4,7.3-3.7
			l0.1,0.1c-3,5-8.1,8.6-13.7,8.6c-5.8,0-10-3.9-10-10.3c0.2-8.8,7.4-15.7,16.2-15.6c3.8,0,9.3,0.9,9.3,5.4c0,3.6-4,8-15.9,4.8v0
			C59.9,31,61.8,26.9,61.8,23.4z"/>
		<path class="st2" d="M85.9,19.9c3.4,0,9.2,1.1,9.2,6c0,3-2.5,5.4-5.5,5.4c0,0,0,0,0,0c-2,0.2-3.7-1.3-3.9-3.2c0-0.3,0-0.7,0.1-1
			c1.7-0.4,2.9-1.9,2.9-3.6c0.1-1.7-1.2-3.2-3-3.3c-0.1,0-0.2,0-0.2,0c-4.8,0-6.8,7.8-6.8,12.2c0,5.3,2.9,8.6,7.2,8.6
			c2.9,0,5.6-1.4,7.3-3.7l0.1,0.1c-3.4,5.7-9,8.6-13.8,8.6c-5.3,0-9.9-3.5-9.9-10.2C69.8,26.9,77,19.8,85.9,19.9
			C85.9,19.9,85.9,19.9,85.9,19.9z"/>
		<path class="st2" d="M113.8,20.9c-3,0-6.5,7.1-8.2,14.3c-0.7,3.3-2.1,9.5-0.4,10.2l-0.1,0.1c-1.1,0.3-2.1,0.4-3.2,0.4
			c-3.8,0-6.4-1.6-5.4-7.6l2.7-15.2c0.2-1.4-0.5-1.9-2-1.3l-0.1-0.1c2.3-1.1,4.8-1.7,7.4-1.9c2.8,0,4,1.1,3.3,4.3l-2.6,10.9h0.2
			c3.3-12.4,7-15.6,11.4-15.6c4.1,0,6,2.7,6,5.6c0,3.5-2.8,6.4-6.4,6.5c-0.1,0-0.2,0-0.3,0c-2.2,0-4.2-1.4-3.9-4.2
			c2-0.1,3.6-1.8,3.6-3.9c0,0,0-0.1,0-0.1C115.7,22.3,115.2,20.9,113.8,20.9z"/>
		<path class="st2" d="M140.8,23.4c0-1.9-0.8-3.3-2.7-3.3c-4.3,0-6.8,6.9-6.8,11.8c0,4.7,2.1,9,7.2,9c2.9-0.1,5.6-1.4,7.3-3.7
			l0.1,0.1c-3,5-8.1,8.6-13.7,8.6c-5.8,0-10-3.9-10-10.3c0.2-8.8,7.4-15.7,16.2-15.7c3.8,0,9.2,0.9,9.2,5.4c0,3.6-4,8-15.9,4.8v0
			C138.9,31,140.8,26.9,140.8,23.4z"/>
		<path class="st2" d="M158.3,35.1c-0.7,4.1-1.4,10,0.9,10.4l-0.1,0.1c-1.2,0.2-2.3,0.3-3.5,0.4c-4,0-7.3-1.7-6.4-7.8l2.8-17.7H150
			v-0.1h0.6c6.9,0,6.9-0.9,10.8-5.6h0.1l-0.9,5.6h3.3v0.1h-3.3L158.3,35.1z"/>
		<path class="st2" d="M47.3,48.5c6.9,0,13.1,2.9,13.1,8.8c0,4-3.2,7.2-7.1,7.3c-2.9,0-5.7-2.1-4.8-5.5c2.1-0.4,3.6-2.3,3.5-4.5
			c0-3.9-2.4-5.3-5.8-5.3c-3.9,0-7.6,2.2-7.6,6.2c0,8.8,21.6,8.2,21.6,22.8c0,10.5-11,19.3-24.2,19.3C24.5,97.6,19,91,19,84.3
			c-0.1-6.3,5-11.5,11.3-11.5c0.1,0,0.3,0,0.4,0c5.5,0,11.6,3.3,11.6,9.1c0,3.9-3,7.1-7.5,7.1c-3.3,0-6.1-2.7-5.1-6.2
			c2.9-0.1,5.1-2.5,5-5.4c0,0,0,0,0-0.1c0-3-2.7-4.2-4.8-4.2c-4.8,0-8.5,5.2-8.5,10.9c0,6.1,3.6,12.8,14.7,12.8
			c10.3,0,15.6-5.5,15.6-11.2c0-10.7-23-11.6-23-24C28.7,53.1,38.5,48.5,47.3,48.5z"/>
		<path class="st2" d="M87.5,68c-0.7,4.2-1.6,10.5,0.9,10.4l-0.1,0.1c-1.1,0.2-2.3,0.3-3.4,0.3c-4.1,0-7.6-1.7-6.3-7.8l1.7-7.5h-0.1
			c-3,12-6.8,15.2-11.1,15.2c-5,0-6.8-4.5-6.8-8.9c0-7.7,7.2-17.1,15.3-17.1c3.9,0,7.1,2.1,9.5,2.1c1.3,0,2.5-0.7,3-1.9L87.5,68z
			 M71,72.4c0,2,0.7,4.1,1.9,4.1c2.9,0,6.1-7.5,7.4-14.6l0.5-2.9c0.5-2.5,0.8-5.8-1.8-5.8C74.2,53.2,71,64.7,71,72.4z"/>
		<path class="st2" d="M100.7,68h0.2c3.2-12.4,7.9-15.2,12.2-15.2c5.8,0,5.6,5,5,8.3L117,68c-0.7,4.2-1.3,10,0.9,10.4l-0.1,0.1
			c-1.2,0.2-2.3,0.3-3.5,0.4c-4,0-7.3-1.7-6.4-7.8l1.9-12c0.4-2.6,0.3-4.2-1-4.2c-2.5,0-6,6-7.8,13.2c-0.8,3.3-2.2,9.5-0.4,10.2
			l-0.1,0.1c-1.4,0.2-2.7,0.3-4.1,0.4c-3.8,0-5.5-1.6-4.4-7.6l2.7-15.2c0.2-1.4-0.5-1.9-2-1.3l-0.1-0.1c2.3-1.1,4.8-1.7,7.3-1.8
			c2.7,0,4,1.1,3.3,4.3L100.7,68z"/>
		<path class="st2" d="M130.3,68c-0.7,4.2-1.4,10,0.9,10.4l-0.1,0.1c-1.2,0.2-2.3,0.3-3.5,0.4c-4,0-7.3-1.7-6.4-7.8l2.7-17.7h-2
			v-0.1h0.7c6.9,0,6.7-1.1,10.8-5.5h0.1l-0.9,5.5h3.3v0.1h-3.3L130.3,68z"/>
		<path class="st2" d="M159.8,68c-0.7,4.2-1.6,10.5,0.9,10.4l-0.1,0.1c-1.1,0.2-2.3,0.3-3.4,0.3c-4.1,0-7.6-1.7-6.3-7.8l1.7-7.5
			h-0.1c-3,12-6.7,15.2-11.1,15.2c-5.1,0-6.8-4.5-6.8-8.9c0-7.7,7.1-17.1,15.2-17.1c3.9,0,7.1,2.1,9.5,2.1c1.3,0,2.5-0.7,3-1.9
			L159.8,68z M143.4,72.4c0,2,0.6,4.1,1.9,4.1c2.9,0,6.1-7.5,7.4-14.6l0.5-2.9c0.5-2.5,0.8-5.8-1.8-5.8
			C146.6,53.2,143.4,64.7,143.4,72.4z"/>
		<g class="st0">
			<path class="st1" d="M72,91.4h1.8v4.5c-1.2,0.9-3.1,1.6-4.7,1.6c-3.6,0-6.4-2.7-6.4-6.2c0-3.5,2.8-6.1,6.5-6.1
				c1.7,0,3.5,0.7,4.7,1.7l-1.2,1.5c-0.9-0.9-2.2-1.4-3.5-1.4c-2.5,0-4.4,1.9-4.4,4.3c0,2.4,2,4.3,4.4,4.3c0.9,0,1.9-0.3,2.8-0.8
				V91.4z"/>
			<path class="st1" d="M85.4,85.2v1.8h-6.6v3.3h5.9v1.8h-5.9v3.3h6.8v1.8h-8.9V85.2H85.4z"/>
			<path class="st1" d="M90.1,85.2l6.5,8.7v-8.7h2v12.1h-2l-6.5-8.7v8.7h-2V85.2H90.1z"/>
			<path class="st1" d="M110.5,85.2v1.8h-6.6v3.3h5.9v1.8h-5.9v3.3h6.8v1.8h-8.9V85.2H110.5z"/>
			<path class="st1" d="M120.9,97.4l-2.2-3.7c-0.2,0-0.4,0-0.6,0h-2.9v3.7h-2V85.2h4.9c3.1,0,4.9,1.5,4.9,4.1c0,1.9-0.9,3.3-2.5,3.9
				l2.7,4.1H120.9z M118.1,91.9c1.9,0,2.9-0.8,2.9-2.4c0-1.6-1.1-2.4-2.9-2.4h-2.9v4.8H118.1z"/>
		</g>
		<g class="st0">
			<path class="st1" d="M133.6,94.6h-6.1l-1.2,2.7h-2.1l5.4-12.1h2.1l5.3,12.1h-2.2L133.6,94.6z M132.8,92.8l-2.3-5.4l-2.3,5.4
				H132.8z"/>
		</g>
		<g class="st0">
			<path class="st1" d="M145.6,85.2v1.8h-3.9v10.3h-2V87.1h-3.8v-1.8H145.6z"/>
		</g>
		<g class="st0">
			<path class="st1" d="M158.5,91.3c0,3.5-2.8,6.2-6.4,6.2s-6.4-2.7-6.4-6.2c0-3.5,2.8-6.1,6.4-6.1S158.5,87.8,158.5,91.3z
				 M147.7,91.3c0,2.4,2,4.3,4.4,4.3c2.4,0,4.3-1.9,4.3-4.3c0-2.4-1.9-4.3-4.3-4.3C149.7,87,147.7,88.9,147.7,91.3z"/>
			<path class="st1" d="M168.4,97.4l-2.2-3.7c-0.2,0-0.4,0-0.6,0h-2.9v3.7h-2V85.2h4.9c3.1,0,4.9,1.5,4.9,4.1c0,1.9-0.9,3.3-2.5,3.9
				l2.7,4.1H168.4z M165.6,91.9c1.9,0,2.9-0.8,2.9-2.4c0-1.6-1.1-2.4-2.9-2.4h-2.9v4.8H165.6z"/>
		</g>
	</g>
</g>
</svg>
