<svg id="Layer_1" data-name="Layer 1" xmlns="http://www.w3.org/2000/svg" viewBox="0 0 199.4 30.89"><defs><style>.cls-1{fill:#919191;}.cls-2{fill:#f8f7f7;}</style></defs><polygon class="cls-1" points="0 0 199.4 0 199.4 30.89 0 30.89 0 0 0 0"/><polygon class="cls-2" points="38.54 22.89 43.21 22.89 38.54 8 33.72 8 29.1 22.89 32.81 22.89 33.72 19.96 37.7 19.96 38.54 22.89 38.54 22.89"/><path class="cls-2" d="M65.6,85.23h6.82a7.08,7.08,0,0,0,4.1-.84A4.27,4.27,0,0,0,78,80.91a3.33,3.33,0,0,0-2.88-3.38,3.32,3.32,0,0,0,2.51-3.28,3.91,3.91,0,0,0-1.58-3.15,5.34,5.34,0,0,0-3.21-.76H65.6V85.23Z" transform="translate(-53.11 -62.34)"/><path class="cls-2" d="M227.51,80.91c.8,3.24,3.58,4.54,6.71,4.54s6.64-1.43,6.64-5a4.15,4.15,0,0,0-2.21-3.8,15.54,15.54,0,0,0-4.22-1.2c-.56-.13-1.65-.28-1.65-1.06s.87-1,1.48-1a2.28,2.28,0,0,1,2.41,1.5l3.78-1.15c-.91-2.58-3.41-3.65-6-3.65a7.5,7.5,0,0,0-4.28,1.13A4.62,4.62,0,0,0,228.27,75c0,3.53,3.32,4.29,6.12,4.84.67.13,1.82.3,1.82,1.21S235,82,234.46,82a2.49,2.49,0,0,1-2.72-1.81l-4.23.76Z" transform="translate(-53.11 -62.34)"/><polygon class="cls-2" points="169.84 8 163.82 8 161.78 15.9 159.61 8 153.64 8 153.64 22.89 157.07 22.89 157.07 12.25 159.91 22.89 162.82 22.89 165.54 12.25 165.58 22.89 169.84 22.89 169.84 8 169.84 8"/><polygon class="cls-2" points="148.02 19.33 141.31 19.33 141.31 16.92 146.74 16.92 146.74 13.6 141.31 13.6 141.31 11.43 148.02 11.43 148.02 8 136.84 8 136.84 22.89 148.02 22.89 148.02 19.33 148.02 19.33"/><polygon class="cls-2" points="128.76 11.58 131.82 11.58 131.82 8 121.29 8 121.29 11.58 124.42 11.58 124.42 22.89 128.76 22.89 128.76 11.58 128.76 11.58"/><path class="cls-2" d="M157,80.91c.81,3.24,3.58,4.54,6.71,4.54s6.64-1.43,6.64-5a4.15,4.15,0,0,0-2.21-3.8,15.48,15.48,0,0,0-4.21-1.2c-.57-.13-1.65-.28-1.65-1.06s.87-1,1.47-1a2.27,2.27,0,0,1,2.41,1.5l3.78-1.15c-.91-2.58-3.41-3.65-6-3.65a7.52,7.52,0,0,0-4.28,1.13A4.65,4.65,0,0,0,157.71,75c0,3.53,3.32,4.29,6.12,4.84.68.13,1.83.3,1.83,1.21s-1.17.92-1.76.92a2.49,2.49,0,0,1-2.71-1.81l-4.24.76Z" transform="translate(-53.11 -62.34)"/><polygon class="cls-2" points="101.22 8 97.22 8 94.72 12.9 92.12 8 87.1 8 92.12 16.59 92.12 22.89 96.55 22.89 96.55 16.59 101.22 8 101.22 8"/><path class="cls-2" d="M123.74,80.91c.8,3.24,3.58,4.54,6.71,4.54s6.64-1.43,6.64-5a4.15,4.15,0,0,0-2.21-3.8,15.65,15.65,0,0,0-4.22-1.2c-.56-.13-1.65-.28-1.65-1.06s.87-1,1.48-1a2.28,2.28,0,0,1,2.41,1.5l3.78-1.15c-.91-2.58-3.41-3.65-6-3.65a7.49,7.49,0,0,0-4.27,1.13A4.62,4.62,0,0,0,124.5,75c0,3.53,3.32,4.29,6.12,4.84.67.13,1.82.3,1.82,1.21s-1.17.92-1.76.92A2.49,2.49,0,0,1,128,80.15l-4.23.76Z" transform="translate(-53.11 -62.34)"/><polygon class="cls-2" points="59.23 19.33 52.52 19.33 52.52 16.92 57.95 16.92 57.95 13.6 52.52 13.6 52.52 11.43 59.23 11.43 59.23 8 48.05 8 48.05 22.89 59.23 22.89 59.23 19.33 59.23 19.33"/><polygon class="cls-1" points="34.48 16.7 35.7 12.38 36.91 16.7 34.48 16.7 34.48 16.7"/><path class="cls-1" d="M69.79,76.05V73.53h1.78c.87,0,1.78.15,1.78,1.26a1.36,1.36,0,0,1-.43,1,1.88,1.88,0,0,1-1.28.28Z" transform="translate(-53.11 -62.34)"/><path class="cls-1" d="M69.79,81.91V79.22H71.6a3,3,0,0,1,1.32.2,1.29,1.29,0,0,1,.17,2.21,2,2,0,0,1-1.32.28Z" transform="translate(-53.11 -62.34)"/></svg>