<svg id="Layer_1" data-name="Layer 1" xmlns="http://www.w3.org/2000/svg" viewBox="0 0 172.66 46.42"><defs><style>.cls-1{fill:#919191;}</style></defs><path class="cls-1" d="M66.47,152.89a18.5,18.5,0,0,1,4.27.47,8.82,8.82,0,0,1,3.37,1.57,7.21,7.21,0,0,1,2.2,2.93,11.48,11.48,0,0,1,.79,4.5,9.38,9.38,0,0,1-1.42,5.21,7.09,7.09,0,0,1-4.24,3v.11a7.44,7.44,0,0,1,5,2.67,9.23,9.23,0,0,1,1.83,6,15.15,15.15,0,0,1-.58,4.19,8.53,8.53,0,0,1-2,3.48,9.89,9.89,0,0,1-3.61,2.38,15,15,0,0,1-5.52.89H53.86V152.89Zm-2.93,15.33a7.45,7.45,0,0,0,4.58-1.12,4.54,4.54,0,0,0,1.44-3.8,4.67,4.67,0,0,0-1.31-3.76,6.32,6.32,0,0,0-4.13-1.1H61.4v9.78Zm.79,16.48a7.36,7.36,0,0,0,4.39-1.2c1.12-.8,1.68-2.29,1.68-4.45a7,7,0,0,0-.45-2.69,4.4,4.4,0,0,0-1.2-1.73,4.25,4.25,0,0,0-1.81-.91,9.13,9.13,0,0,0-2.3-.27H61.4V184.7Zm24.59-25.43H81.7v-6.39h7.22Zm0,31H81.7V162.1h7.22Zm3.4-20.46a12.27,12.27,0,0,1,1.88-4.63,8.47,8.47,0,0,1,3.43-2.83,12.59,12.59,0,0,1,5.21-1,13.17,13.17,0,0,1,5.39.86,7.54,7.54,0,0,1,3.4,2.8,12.5,12.5,0,0,1,1.78,4.66,36.16,36.16,0,0,1,.52,6.48,31.22,31.22,0,0,1-.58,6.39,12.27,12.27,0,0,1-1.88,4.63,7.8,7.8,0,0,1-3.43,2.75,13.52,13.52,0,0,1-5.2.88,13.73,13.73,0,0,1-5.39-.81,7.21,7.21,0,0,1-3.4-2.72,12.25,12.25,0,0,1-1.78-4.65,35.45,35.45,0,0,1-.52-6.47,32,32,0,0,1,.57-6.38m6.75,10.36a13.86,13.86,0,0,0,.5,3.14,4.51,4.51,0,0,0,1.17,2,3,3,0,0,0,2.1.73,3.05,3.05,0,0,0,3-2.3,24.29,24.29,0,0,0,.84-7.59,24.26,24.26,0,0,0-.84-7.58,3.05,3.05,0,0,0-3-2.3,3,3,0,0,0-2.1.73,4.51,4.51,0,0,0-1.17,2,13.86,13.86,0,0,0-.5,3.14c-.07,1.22-.1,2.54-.1,4s0,2.76.1,4M121.78,182a4.41,4.41,0,0,0,1,3,3.5,3.5,0,0,0,2.8,1.12,4,4,0,0,0,2.67-.83,3.13,3.13,0,0,0,1-2.52,2.64,2.64,0,0,0-.79-2.06,6.06,6.06,0,0,0-1.83-1.13l-5.08-1.83a9.68,9.68,0,0,1-4.49-2.95,7.61,7.61,0,0,1-1.52-4.9,9.37,9.37,0,0,1,.57-3.27,7,7,0,0,1,1.83-2.69,9,9,0,0,1,3.22-1.83,14.39,14.39,0,0,1,4.74-.68c3.28,0,5.7.69,7.27,2.09a7.51,7.51,0,0,1,2.36,5.91v1.15H129a5.74,5.74,0,0,0-.71-3.21,2.81,2.81,0,0,0-2.48-1,4,4,0,0,0-2.39.75,2.67,2.67,0,0,0-1,2.28,2.93,2.93,0,0,0,.66,1.88,5,5,0,0,0,2.48,1.42l4.35,1.46a9.85,9.85,0,0,1,4.81,3,8.16,8.16,0,0,1,1.41,5,9,9,0,0,1-.78,3.9,7.79,7.79,0,0,1-2.17,2.74,8.43,8.43,0,0,1-3.3,1.57,17.28,17.28,0,0,1-4.21.47,18.89,18.89,0,0,1-5.05-.57,7.39,7.39,0,0,1-3.19-1.73,6.12,6.12,0,0,1-1.65-2.8,13.59,13.59,0,0,1-.47-3.69v-1h6.49Zm30.06-11.77a7.17,7.17,0,0,0-.48-1.81,3.1,3.1,0,0,0-1-1.3,2.65,2.65,0,0,0-1.68-.5,3.29,3.29,0,0,0-3.4,2.38,11.94,11.94,0,0,0-.57,3c-.11,1.2-.16,2.63-.16,4.27s0,3.23.16,4.47a12.47,12.47,0,0,0,.57,3.06,3.46,3.46,0,0,0,1.18,1.75,3.23,3.23,0,0,0,2,.55,2.81,2.81,0,0,0,2.67-1.57,11.18,11.18,0,0,0,.84-5h6.9c0,3.7-.83,6.51-2.48,8.45s-4.41,2.9-8.24,2.9a15.26,15.26,0,0,1-4.74-.65,6.93,6.93,0,0,1-3.35-2.35,11.67,11.67,0,0,1-2-4.56,31.34,31.34,0,0,1-.68-7.09,25.92,25.92,0,0,1,.84-7.19,11.56,11.56,0,0,1,2.35-4.55,8.08,8.08,0,0,1,3.61-2.38,14.65,14.65,0,0,1,4.6-.68c3.35,0,5.87,1,7.57,2.93a11.72,11.72,0,0,1,2.53,7.95H152a16.92,16.92,0,0,0-.13-2m16.4-8.11v3.77h.1A10.31,10.31,0,0,1,171,162.6a6,6,0,0,1,3.82-1.23l.65,0,.66.08v6.91c-.39,0-.76-.06-1.13-.08s-.74,0-1.12,0a6.73,6.73,0,0,0-1.88.27,4.93,4.93,0,0,0-1.73.86A4.28,4.28,0,0,0,169,171a5.46,5.46,0,0,0-.47,2.38v16.9h-7.22V162.1Zm16.69-2.83h-7.22v-6.39h7.22Zm0,31h-7.22V162.1h7.22ZM195.6,162.1v3h.11a8,8,0,0,1,2.69-2.85,7.2,7.2,0,0,1,3.69-.86,7.1,7.1,0,0,1,6.54,3.48q2.09,3.48,2.09,11.32t-2.09,11.25a7.13,7.13,0,0,1-6.54,3.4,6.63,6.63,0,0,1-6.07-3.19h-.11V199.3h-7.22V162.1Zm1,21a3,3,0,0,0,3.11,2.33,3,3,0,0,0,3.06-2.33,25.15,25.15,0,0,0,.71-6.94,25.07,25.07,0,0,0-.71-6.93,3,3,0,0,0-3.06-2.33,3,3,0,0,0-3.11,2.33,25.46,25.46,0,0,0-.71,6.93,25.55,25.55,0,0,0,.71,6.94m25.72-30.23v9.22h4.18V167h-4.18v15.22a4.19,4.19,0,0,0,.5,2.38,2.37,2.37,0,0,0,2.06.71l.84,0c.28,0,.54,0,.78-.07v5c-.8,0-1.58,0-2.32.08s-1.55.08-2.39.08a16.81,16.81,0,0,1-3.42-.29,3.49,3.49,0,0,1-2-1.15,5,5,0,0,1-1-2.28,19.58,19.58,0,0,1-.26-3.56V167h-3.67V162.1h3.67v-9.22Z" transform="translate(-53.86 -152.88)"/></svg>