<svg id="Layer_1" data-name="Layer 1" xmlns="http://www.w3.org/2000/svg" viewBox="0 0 164.76 32.7"><defs><style>.cls-1{fill:#919191;}</style></defs><path class="cls-1" d="M107.31,450.94h-4.67a2.71,2.71,0,0,0-.8-1.76,2.48,2.48,0,0,0-1.74-.62,2.61,2.61,0,0,0-2.13,1,5.27,5.27,0,0,0-.82,3.31,6.24,6.24,0,0,0,.35,2.39,2.63,2.63,0,0,0,1,1.22,2.91,2.91,0,0,0,1.56.4,2.57,2.57,0,0,0,1.82-.63,2.83,2.83,0,0,0,.8-1.87h4.76a8.71,8.71,0,0,1-.56,2.36,6,6,0,0,1-1.36,1.91,6.57,6.57,0,0,1-2.26,1.48,8.17,8.17,0,0,1-3,.53,9.31,9.31,0,0,1-3.18-.52,6.74,6.74,0,0,1-2.46-1.45A6.83,6.83,0,0,1,93,456.55a8.88,8.88,0,0,1-.79-3.76,9.21,9.21,0,0,1,.57-3.27A7.29,7.29,0,0,1,94.36,447a6.83,6.83,0,0,1,2.21-1.55,8.7,8.7,0,0,1,3.43-.66,9.63,9.63,0,0,1,3.07.49,5.9,5.9,0,0,1,2.35,1.43,6.53,6.53,0,0,1,1.42,2.17,7.7,7.7,0,0,1,.47,2.08" transform="translate(-63.31 -439.1)"/><polygon class="cls-1" points="46.48 21.15 46.48 6.08 51.41 6.08 51.41 17.21 58.2 17.21 58.2 21.15 46.48 21.15"/><rect class="cls-1" x="60.7" y="6.08" width="4.94" height="15.07"/><polygon class="cls-1" points="68.69 21.15 68.69 6.08 74.67 6.08 77.33 15.49 79.97 6.08 85.95 6.08 85.95 21.15 81.47 21.15 81.47 12.7 79.04 21.15 75.59 21.15 73.15 12.7 73.15 21.15 68.69 21.15"/><path class="cls-1" d="M150.93,460.25l5.39-15.07h5l5.39,15.07h-4.92l-.57-2h-4.93l-.56,2Zm7.85-10.54-1.54,5.47h3.14Z" transform="translate(-63.31 -439.1)"/><polygon class="cls-1" points="101.56 6.08 106.53 6.08 109.25 16.1 111.93 6.08 116.9 6.08 111.71 21.15 106.7 21.15 101.56 6.08"/><polygon class="cls-1" points="118.71 21.15 118.71 6.08 130.97 6.08 130.97 9.63 123.49 9.63 123.49 11.75 129.83 11.75 129.83 15.17 123.49 15.17 123.49 17.53 131.27 17.53 131.27 21.15 118.71 21.15"/><polygon class="cls-1" points="134.03 21.15 134.03 6.08 138.63 6.08 143.83 14.15 143.83 6.08 148.56 6.08 148.56 21.15 143.86 21.15 138.78 13.28 138.78 21.15 134.03 21.15"/><polygon class="cls-1" points="150.92 6.08 164.75 6.08 164.75 10.04 160.3 10.04 160.3 21.15 155.38 21.15 155.38 10.04 150.92 10.04 150.92 6.08"/><path class="cls-1" d="M97.83,469.2l.87.22a2.93,2.93,0,0,1-1,1.65,2.71,2.71,0,0,1-1.75.57,3.16,3.16,0,0,1-1.74-.44,2.68,2.68,0,0,1-1-1.26,4.63,4.63,0,0,1-.35-1.78,3.92,3.92,0,0,1,.39-1.8,2.74,2.74,0,0,1,1.13-1.18,3.36,3.36,0,0,1,1.6-.4,2.73,2.73,0,0,1,1.68.51,2.65,2.65,0,0,1,.94,1.42l-.86.21a2.06,2.06,0,0,0-.67-1.05,1.78,1.78,0,0,0-1.1-.34,2.18,2.18,0,0,0-1.28.37,2,2,0,0,0-.72,1,4,4,0,0,0-.21,1.28,3.9,3.9,0,0,0,.25,1.47,1.84,1.84,0,0,0,.76.94,2.16,2.16,0,0,0,1.13.31,1.91,1.91,0,0,0,1.25-.42,2.15,2.15,0,0,0,.69-1.26" transform="translate(-63.31 -439.1)"/><polygon class="cls-1" points="36.25 32.42 36.25 25.8 37.13 25.8 37.13 31.64 40.39 31.64 40.39 32.42 36.25 32.42"/><polygon class="cls-1" points="41.26 32.42 41.26 25.8 46.05 25.8 46.05 26.58 42.14 26.58 42.14 28.61 45.81 28.61 45.81 29.39 42.14 29.39 42.14 31.64 46.21 31.64 46.21 32.42 41.26 32.42"/><path class="cls-1" d="M109.82,471.52l2.54-6.62h1l2.71,6.62h-1l-.77-2h-2.77l-.73,2Zm1.91-2.72H114l-.69-1.83c-.21-.56-.37-1-.47-1.38a9.62,9.62,0,0,1-.36,1.27Z" transform="translate(-63.31 -439.1)"/><polygon class="cls-1" points="53.21 32.42 53.21 25.8 54.11 25.8 57.59 31 57.59 25.8 58.43 25.8 58.43 32.42 57.53 32.42 54.05 27.21 54.05 32.42 53.21 32.42"/><rect class="cls-1" x="59.87" y="25.8" width="0.88" height="6.62"/><polygon class="cls-1" points="62.09 32.42 62.09 25.8 62.99 25.8 66.47 31 66.47 25.8 67.31 25.8 67.31 32.42 66.41 32.42 62.93 27.21 62.93 32.42 62.09 32.42"/><path class="cls-1" d="M135,468.92v-.77h2.81v2.46a5.2,5.2,0,0,1-1.33.78,4,4,0,0,1-1.41.26,3.8,3.8,0,0,1-1.78-.42,2.75,2.75,0,0,1-1.2-1.21,3.85,3.85,0,0,1-.41-1.77,4.09,4.09,0,0,1,.41-1.8,2.72,2.72,0,0,1,1.16-1.25,3.67,3.67,0,0,1,1.75-.4,3.38,3.38,0,0,1,1.3.23,2.07,2.07,0,0,1,.91.65,2.71,2.71,0,0,1,.5,1.08l-.79.22a2.49,2.49,0,0,0-.37-.8,1.61,1.61,0,0,0-.63-.46,2.29,2.29,0,0,0-.92-.18,2.76,2.76,0,0,0-1,.19,1.89,1.89,0,0,0-.7.48,2.41,2.41,0,0,0-.42.65,3.47,3.47,0,0,0-.25,1.34,3.28,3.28,0,0,0,.3,1.48,2,2,0,0,0,.89.89,2.78,2.78,0,0,0,1.24.28,3,3,0,0,0,1.11-.21,3.17,3.17,0,0,0,.82-.47v-1.24Z" transform="translate(-63.31 -439.1)"/><path class="cls-1" d="M140.08,471.52l2.54-6.62h.94l2.71,6.62h-1l-.78-2h-2.77l-.72,2ZM142,468.8h2.24l-.69-1.83c-.21-.56-.37-1-.47-1.38a7.3,7.3,0,0,1-.36,1.27Z" transform="translate(-63.31 -439.1)"/><rect class="cls-1" x="83.63" y="25.8" width="0.88" height="6.62"/><path class="cls-1" d="M149.19,471.52V464.9h2.94a3.85,3.85,0,0,1,1.34.18,1.46,1.46,0,0,1,.74.63,1.9,1.9,0,0,1,.28,1,1.67,1.67,0,0,1-.46,1.19,2.31,2.31,0,0,1-1.41.62,2.22,2.22,0,0,1,.53.33,4.74,4.74,0,0,1,.73.88l1.15,1.8h-1.11l-.87-1.38c-.26-.39-.47-.7-.63-.91a2,2,0,0,0-.45-.44,1.3,1.3,0,0,0-.4-.18,2.77,2.77,0,0,0-.49,0h-1v2.94Zm.88-3.7H152a2.94,2.94,0,0,0,.94-.12,1,1,0,0,0,.51-.4,1.06,1.06,0,0,0,.18-.6,1,1,0,0,0-.34-.77,1.62,1.62,0,0,0-1.08-.3h-2.09Z" transform="translate(-63.31 -439.1)"/><polygon class="cls-1" points="94.79 32.42 94.79 25.8 99.26 25.8 99.26 26.58 95.67 26.58 95.67 28.63 98.78 28.63 98.78 29.41 95.67 29.41 95.67 32.42 94.79 32.42"/><path class="cls-1" d="M163.26,468.3a3.64,3.64,0,0,1,.89-2.59,3,3,0,0,1,2.28-.93,3.24,3.24,0,0,1,1.66.44,2.87,2.87,0,0,1,1.12,1.22,4.3,4.3,0,0,1,0,3.58,2.86,2.86,0,0,1-1.15,1.21,3.34,3.34,0,0,1-1.61.4,3.12,3.12,0,0,1-1.67-.45,2.89,2.89,0,0,1-1.12-1.23,3.77,3.77,0,0,1-.38-1.65m.9,0a2.66,2.66,0,0,0,.65,1.89,2.14,2.14,0,0,0,1.61.68,2.12,2.12,0,0,0,1.63-.69,2.78,2.78,0,0,0,.64-2,3.46,3.46,0,0,0-.27-1.42,2.08,2.08,0,0,0-.8-.93,2.2,2.2,0,0,0-1.18-.34,2.25,2.25,0,0,0-1.6.64,2.86,2.86,0,0,0-.68,2.14" transform="translate(-63.31 -439.1)"/><path class="cls-1" d="M170.55,471.52V464.9h2.94a3.91,3.91,0,0,1,1.35.18,1.48,1.48,0,0,1,.73.63,1.81,1.81,0,0,1,.28,1,1.63,1.63,0,0,1-.46,1.19,2.26,2.26,0,0,1-1.41.62,2.22,2.22,0,0,1,.53.33,4.38,4.38,0,0,1,.73.88l1.15,1.8h-1.1l-.88-1.38c-.26-.39-.47-.7-.63-.91a1.82,1.82,0,0,0-.45-.44,1.36,1.36,0,0,0-.39-.18,2.85,2.85,0,0,0-.49,0h-1v2.94Zm.88-3.7h1.88a2.9,2.9,0,0,0,.94-.12,1.06,1.06,0,0,0,.52-.4,1,1,0,0,0,.17-.6,1,1,0,0,0-.34-.77,1.57,1.57,0,0,0-1.07-.3h-2.1Z" transform="translate(-63.31 -439.1)"/><rect class="cls-1" x="116.26" y="25.8" width="0.88" height="6.62"/><polygon class="cls-1" points="118.49 32.42 118.49 25.8 119.39 25.8 122.86 31 122.86 25.8 123.7 25.8 123.7 32.42 122.81 32.42 119.33 27.21 119.33 32.42 118.49 32.42"/><path class="cls-1" d="M188.31,471.52V464.9h2.28a5.86,5.86,0,0,1,1.18.09,2.27,2.27,0,0,1,1,.48,2.61,2.61,0,0,1,.78,1.13,4.27,4.27,0,0,1,.26,1.57,4.9,4.9,0,0,1-.17,1.34,3.5,3.5,0,0,1-.45,1,2.66,2.66,0,0,1-.61.6,2.72,2.72,0,0,1-.79.33,4.8,4.8,0,0,1-1.06.11Zm.87-.78h1.42a3.54,3.54,0,0,0,1-.12,1.5,1.5,0,0,0,.59-.35,1.92,1.92,0,0,0,.48-.83,4,4,0,0,0,.18-1.28,3.1,3.1,0,0,0-.34-1.6,1.71,1.71,0,0,0-.83-.74,3.44,3.44,0,0,0-1.14-.14h-1.39Z" transform="translate(-63.31 -439.1)"/><path class="cls-1" d="M199.15,464.9H200v3.83a4.51,4.51,0,0,1-.23,1.58,2,2,0,0,1-.81,1,3,3,0,0,1-1.55.37,3.15,3.15,0,0,1-1.53-.33,1.83,1.83,0,0,1-.84-.92,4.43,4.43,0,0,1-.25-1.66V464.9h.87v3.82a3.57,3.57,0,0,0,.17,1.27,1.16,1.16,0,0,0,.54.63,1.92,1.92,0,0,0,1,.22,1.83,1.83,0,0,0,1.38-.43,2.58,2.58,0,0,0,.41-1.69Z" transform="translate(-63.31 -439.1)"/><path class="cls-1" d="M201,469.39l.83-.07a1.94,1.94,0,0,0,.27.82,1.55,1.55,0,0,0,.67.51,2.54,2.54,0,0,0,1,.2,2.39,2.39,0,0,0,.88-.15,1.14,1.14,0,0,0,.57-.41.91.91,0,0,0,.19-.57.86.86,0,0,0-.18-.54,1.25,1.25,0,0,0-.6-.39,9.7,9.7,0,0,0-1.18-.32,6.12,6.12,0,0,1-1.27-.42,1.73,1.73,0,0,1-.71-.61,1.51,1.51,0,0,1-.23-.83,1.69,1.69,0,0,1,.28-.94,1.78,1.78,0,0,1,.83-.66,3.19,3.19,0,0,1,1.22-.23,3.5,3.5,0,0,1,1.3.24,1.87,1.87,0,0,1,.86.7,2.09,2.09,0,0,1,.33,1l-.84.07a1.37,1.37,0,0,0-.46-.95,1.76,1.76,0,0,0-1.16-.32,1.83,1.83,0,0,0-1.16.29.87.87,0,0,0-.36.7.76.76,0,0,0,.26.59,3.56,3.56,0,0,0,1.32.47,9,9,0,0,1,1.47.42,2.05,2.05,0,0,1,.85.68,1.68,1.68,0,0,1,.28.94,1.84,1.84,0,0,1-.31,1,2,2,0,0,1-.87.73,3,3,0,0,1-1.27.26,3.74,3.74,0,0,1-1.51-.27,2,2,0,0,1-.95-.79,2.29,2.29,0,0,1-.37-1.19" transform="translate(-63.31 -439.1)"/><polygon class="cls-1" points="145.66 32.42 145.66 26.58 143.48 26.58 143.48 25.8 148.73 25.8 148.73 26.58 146.54 26.58 146.54 32.42 145.66 32.42"/><path class="cls-1" d="M212.77,471.52V464.9h2.94a3.81,3.81,0,0,1,1.34.18,1.46,1.46,0,0,1,.74.63,1.9,1.9,0,0,1,.28,1,1.67,1.67,0,0,1-.46,1.19,2.29,2.29,0,0,1-1.41.62,2.22,2.22,0,0,1,.53.33,4.35,4.35,0,0,1,.72.88l1.16,1.8h-1.1l-.88-1.38c-.26-.39-.47-.7-.63-.91a2,2,0,0,0-.45-.44,1.3,1.3,0,0,0-.4-.18,2.77,2.77,0,0,0-.49,0h-1v2.94Zm.88-3.7h1.88a2.94,2.94,0,0,0,.94-.12,1.06,1.06,0,0,0,.52-.4,1.13,1.13,0,0,0,.17-.6,1,1,0,0,0-.34-.77,1.62,1.62,0,0,0-1.08-.3h-2.09Z" transform="translate(-63.31 -439.1)"/><path class="cls-1" d="M221,471.52v-2.8l-2.55-3.82h1.07l1.3,2c.24.37.47.74.67,1.12.2-.35.45-.74.73-1.17l1.28-2h1l-2.64,3.82v2.8Z" transform="translate(-63.31 -439.1)"/><polygon class="cls-1" points="25.79 11.49 22.39 7.66 24.78 7.66 21.68 4.17 23.44 4.17 19.75 0 16.05 4.17 17.81 4.17 14.71 7.66 17.1 7.66 13.7 11.49 18.48 11.49 18.48 14.13 21 14.13 21 11.49 25.79 11.49"/><polygon class="cls-1" points="4.98 12.69 4.98 11.4 13.72 5.89 13.72 0 0 8.65 0 15.44 13.72 24.08 13.72 18.19 4.98 12.69"/><polygon class="cls-1" points="13.72 27.52 0 18.87 0 24.05 13.72 32.7 27.45 24.05 27.45 18.87 13.72 27.52"/></svg>