<svg id="Layer_1" data-name="Layer 1" xmlns="http://www.w3.org/2000/svg" viewBox="0 0 203.34 56.5"><defs><style>.cls-1{fill:#919191;}</style></defs><path class="cls-1" d="M133.62,258.83a2.52,2.52,0,0,0,1-4.83,3.87,3.87,0,0,0-2.9,3.84c0,.05,0,.09,0,.14a2.5,2.5,0,0,0,1.88.85" transform="translate(-53.87 -244.48)"/><path class="cls-1" d="M131.54,253.11h0a12,12,0,0,0-5.47,3.81c-.89,1.11-.61,1.71-.36,2a1.61,1.61,0,0,0,1.92.14.62.62,0,0,0,.32-.62c0-.32,0-.91,3.47-3.05,5.23-3.19,12.34-.52,15.15.78l1,.45c3.89,1.86,3.94,1.78,4.05,1.58s.13-.24-1.62-1.35c-7.94-5-14.72-5.21-18.42-3.71" transform="translate(-53.87 -244.48)"/><path class="cls-1" d="M54,254.16a53.78,53.78,0,0,1,8.71-.59c4,0,6.85.76,8.75,2.33a8.13,8.13,0,0,1,3,6.55,8.94,8.94,0,0,1-2.58,6.76c-2.2,2-5.49,3-9.3,3a10.82,10.82,0,0,1-2.19-.16v10.23H54Zm6.39,12.94a9.59,9.59,0,0,0,2.15.17c3.42,0,5.54-1.74,5.54-4.61,0-2.62-1.78-4.18-5-4.18a11.45,11.45,0,0,0-2.66.21Z" transform="translate(-53.87 -244.48)"/><path class="cls-1" d="M93.56,277.29a27.13,27.13,0,0,0,.34,5H88.11l-.38-2.08h-.12a7.48,7.48,0,0,1-5.93,2.54A6.33,6.33,0,0,1,75,276.41c0-5.38,4.81-7.91,12.13-7.91v-.26c0-1.1-.6-2.66-3.77-2.66a12.1,12.1,0,0,0-5.7,1.52L76.48,263a17,17,0,0,1,8-1.86c6.88,0,9,4.06,9,8.92Zm-6.21-4.78c-3.38,0-6,.8-6,3.26a2.31,2.31,0,0,0,2.54,2.45,3.55,3.55,0,0,0,3.34-2.37,4.34,4.34,0,0,0,.13-1.09Z" transform="translate(-53.87 -244.48)"/><path class="cls-1" d="M96.06,268.41c0-3,0-5-.16-6.8h5.49l.26,3.84h.17a6,6,0,0,1,5.58-4.31,6.77,6.77,0,0,1,1.35.12v6.05a11.09,11.09,0,0,0-1.78-.17c-2.37,0-4,1.23-4.39,3.26a6.87,6.87,0,0,0-.13,1.44v10.44H96Z" transform="translate(-53.87 -244.48)"/><path class="cls-1" d="M184.68,279.28c0,4-.8,7.23-3.17,9.3s-5.32,2.54-8.37,2.54a16.6,16.6,0,0,1-7.44-1.57l1.27-4.9a12.57,12.57,0,0,0,6,1.56c3,0,5.37-1.61,5.37-5.45v-1.32h-.09a6.65,6.65,0,0,1-5.57,2.67c-5.12,0-8.76-4.14-8.76-10.06,0-6.69,4.27-10.91,9.39-10.91a6.22,6.22,0,0,1,5.66,2.92h.09l.21-2.45h5.58c-.08,1.35-.17,3.08-.17,6.17ZM178.25,270a6,6,0,0,0-.12-1.19,3.53,3.53,0,0,0-3.47-2.83c-2.36,0-4.22,2.12-4.22,5.88,0,3.08,1.52,5.49,4.18,5.49A3.51,3.51,0,0,0,178,274.8a5.93,5.93,0,0,0,.21-1.74Z" transform="translate(-53.87 -244.48)"/><polygon class="cls-1" points="150.94 25.75 140.45 25.75 140.45 32.52 152.16 32.52 152.16 37.8 134.03 37.8 134.03 9.3 151.58 9.3 151.58 14.59 140.45 14.59 140.45 20.51 150.94 20.51 150.94 25.75"/><path class="cls-1" d="M213.91,261.61,217,271.75c.33,1.23.75,2.75,1,3.85h.12c.3-1.1.64-2.67.94-3.85l2.53-10.14h6.89l-4.82,13.61c-3,8.2-4.94,11.46-7.27,13.53a11.29,11.29,0,0,1-6.21,2.83l-1.35-5.41a10.24,10.24,0,0,0,2.78-1.1,7.4,7.4,0,0,0,2.67-2.58,1.8,1.8,0,0,0,.34-.93,2.67,2.67,0,0,0-.26-1.06l-7.61-18.89Z" transform="translate(-53.87 -244.48)"/><path class="cls-1" d="M233.94,274c.21,2.7,2.83,4,5.83,4a17.12,17.12,0,0,0,5.71-.88l.84,4.35a19.48,19.48,0,0,1-7.48,1.31c-7,0-11-4.06-11-10.57,0-5.24,3.3-11,10.44-11,6.68,0,9.22,5.2,9.22,10.31a15.45,15.45,0,0,1-.22,2.58Zm7.56-4.4c0-1.52-.67-4.19-3.59-4.19-2.74,0-3.85,2.5-4,4.19Z" transform="translate(-53.87 -244.48)"/><path class="cls-1" d="M244.08,298.82H150a1.55,1.55,0,0,1,0-3.1h94.06a10,10,0,0,0,10-10V257.6a10,10,0,0,0-10-10h-54.6a1.55,1.55,0,0,1,0-3.1h54.6a13.14,13.14,0,0,1,13.13,13.12v28.1a13.14,13.14,0,0,1-13.13,13.12" transform="translate(-53.87 -244.48)"/><path class="cls-1" d="M57,292.78a3,3,0,0,1,1.9.62.32.32,0,0,1,.07.51l-.11.17c-.14.21-.3.22-.52.09a2.21,2.21,0,0,0-1.29-.43,2,2,0,0,0-2,2.05,2,2,0,0,0,2,2.08,2.5,2.5,0,0,0,1.47-.52.31.31,0,0,1,.51.1l.09.17a.34.34,0,0,1-.1.5,3.19,3.19,0,0,1-2,.71,3,3,0,1,1,0-6.05" transform="translate(-53.87 -244.48)"/><path class="cls-1" d="M63.28,295.13h.3V295a1.12,1.12,0,0,0-1.26-1.26,2.66,2.66,0,0,0-1.3.36.35.35,0,0,1-.51-.13l-.09-.16a.34.34,0,0,1,.12-.52,3.9,3.9,0,0,1,1.88-.49A2.06,2.06,0,0,1,64.69,295v3.28a.34.34,0,0,1-.38.37H64a.33.33,0,0,1-.38-.37V298a1.84,1.84,0,0,1,0-.35h0a2.15,2.15,0,0,1-1.88,1.21,1.78,1.78,0,0,1-1.94-1.71c0-1.79,2.24-2,3.44-2M62,298a1.74,1.74,0,0,0,1.56-1.84v-.25h-.3c-.81,0-2.34.07-2.34,1.17A1,1,0,0,0,62,298" transform="translate(-53.87 -244.48)"/><path class="cls-1" d="M65.75,293.29a.34.34,0,0,1,.38-.37h.31c.26,0,.38.12.38.37V294a3.07,3.07,0,0,1,0,.43h0a2,2,0,0,1,1.77-1.52c.26,0,.36.13.36.38v.32c0,.25-.14.37-.41.37-1.13,0-1.67,1.23-1.67,2.37v2a.33.33,0,0,1-.38.37h-.35a.34.34,0,0,1-.38-.37Z" transform="translate(-53.87 -244.48)"/><path class="cls-1" d="M72.68,293.29a.32.32,0,0,1,.37-.37h.27c.25,0,.37.12.37.32v.34a2.45,2.45,0,0,1,0,.31h0a2.09,2.09,0,0,1,1.94-1.11c1.56,0,2.54,1.23,2.54,3s-1.11,3-2.62,3a2,2,0,0,1-1.79-1h0a4,4,0,0,1,0,.51v2.29c0,.25-.12.38-.36.38h-.36a.33.33,0,0,1-.37-.38Zm2.7,4.58c.92,0,1.67-.74,1.67-2.05s-.67-2.07-1.63-2.07-1.67.61-1.67,2.08c0,1,.57,2,1.63,2" transform="translate(-53.87 -244.48)"/><path class="cls-1" d="M82.18,295.13h.29V295a1.12,1.12,0,0,0-1.25-1.26,2.66,2.66,0,0,0-1.3.36.36.36,0,0,1-.52-.13l-.09-.16a.35.35,0,0,1,.13-.52,3.82,3.82,0,0,1,1.87-.49A2.05,2.05,0,0,1,83.58,295v3.28a.34.34,0,0,1-.38.37h-.28a.34.34,0,0,1-.38-.37V298a1.4,1.4,0,0,1,0-.35h0a2.13,2.13,0,0,1-1.88,1.21,1.78,1.78,0,0,1-1.94-1.71c0-1.79,2.25-2,3.45-2M80.92,298a1.74,1.74,0,0,0,1.56-1.84v-.25h-.29c-.81,0-2.34.07-2.34,1.17a1,1,0,0,0,1.07.92" transform="translate(-53.87 -244.48)"/><path class="cls-1" d="M84.64,293.29a.34.34,0,0,1,.38-.37h.32a.32.32,0,0,1,.37.37V294a3.07,3.07,0,0,1,0,.43h0a2.06,2.06,0,0,1,1.77-1.52c.27,0,.37.13.37.38v.32c0,.25-.15.37-.41.37-1.13,0-1.68,1.23-1.68,2.37v2a.33.33,0,0,1-.38.37H85a.34.34,0,0,1-.38-.37Z" transform="translate(-53.87 -244.48)"/><path class="cls-1" d="M88.49,291a.34.34,0,0,1,.38-.38h.35a.34.34,0,0,1,.37.38v4h.83l1.4-1.87a.48.48,0,0,1,.45-.24h.42c.31,0,.41.2.23.45l-1.6,2.09v0l1.85,2.75c.16.26.06.45-.25.45h-.46a.46.46,0,0,1-.44-.26L90.44,296h-.85v2.33a.33.33,0,0,1-.37.37h-.35a.33.33,0,0,1-.38-.37Z" transform="translate(-53.87 -244.48)"/><path class="cls-1" d="M96.84,297.69l.11-.16c.15-.2.3-.21.53-.08a2.52,2.52,0,0,0,1.41.47c.57,0,1-.28,1-.77,0-1.13-3-.75-3-2.7,0-1.1,1-1.67,2.09-1.67a2.85,2.85,0,0,1,1.6.45.33.33,0,0,1,.13.5l-.11.17c-.11.2-.28.23-.5.12a2.37,2.37,0,0,0-1.17-.33c-.55,0-1,.24-1,.73,0,1.16,3,.75,3,2.71,0,1-.83,1.7-2.07,1.7a3.25,3.25,0,0,1-2-.63.33.33,0,0,1-.07-.51" transform="translate(-53.87 -244.48)"/><path class="cls-1" d="M104.65,292.78a3,3,0,1,1-3.1,3,3,3,0,0,1,3.1-3m0,5.09a2.07,2.07,0,1,0-2-2.08,2,2,0,0,0,2,2.08" transform="translate(-53.87 -244.48)"/><path class="cls-1" d="M108.77,291a.33.33,0,0,1,.37-.38h.36a.34.34,0,0,1,.37.38v6c0,.65.29.74.53.77a.3.3,0,0,1,.3.33v.27a.34.34,0,0,1-.39.39c-.62,0-1.54-.17-1.54-1.62Z" transform="translate(-53.87 -244.48)"/><path class="cls-1" d="M111.46,293.29a.33.33,0,0,1,.38-.37h.35a.32.32,0,0,1,.36.37v3.07c0,.8.18,1.44,1.09,1.44a2,2,0,0,0,1.88-2.18v-2.33a.33.33,0,0,1,.38-.37h.35a.34.34,0,0,1,.38.37v5a.34.34,0,0,1-.38.37h-.32a.32.32,0,0,1-.37-.37v-.52a2,2,0,0,1,0-.33h0a2.41,2.41,0,0,1-2.15,1.36c-1.3,0-2-.69-2-2.21Z" transform="translate(-53.87 -244.48)"/><path class="cls-1" d="M118.28,293.88h-.4a.34.34,0,0,1-.37-.38v-.15a.34.34,0,0,1,.38-.38h.41v-1.26a.34.34,0,0,1,.38-.38H119a.33.33,0,0,1,.37.38V293h1a.34.34,0,0,1,.37.38v.15a.33.33,0,0,1-.36.38h-1v2.56c0,1.1.68,1.27,1.1,1.3s.4.12.4.38v.24c0,.26-.15.38-.46.38a2,2,0,0,1-2.14-2.13Z" transform="translate(-53.87 -244.48)"/><path class="cls-1" d="M121.89,291.39V291a.34.34,0,0,1,.38-.38h.39a.34.34,0,0,1,.38.38v.38a.34.34,0,0,1-.38.37h-.39a.34.34,0,0,1-.38-.37m0,1.9a.33.33,0,0,1,.37-.37h.36a.32.32,0,0,1,.37.37v5a.32.32,0,0,1-.37.37h-.36a.33.33,0,0,1-.37-.37Z" transform="translate(-53.87 -244.48)"/><path class="cls-1" d="M127.05,292.78a3,3,0,1,1-3.1,3,3,3,0,0,1,3.1-3m0,5.09a2.07,2.07,0,1,0-2-2.08,2,2,0,0,0,2,2.08" transform="translate(-53.87 -244.48)"/><path class="cls-1" d="M131.16,293.29a.34.34,0,0,1,.38-.37h.32a.33.33,0,0,1,.38.37v.52a1.54,1.54,0,0,1,0,.33h0a2.38,2.38,0,0,1,2.19-1.36c1.36,0,2,.74,2,2.22v3.32a.32.32,0,0,1-.37.37h-.36a.33.33,0,0,1-.37-.37v-3.07c0-.81-.17-1.45-1.09-1.45a2,2,0,0,0-1.93,2.13v2.39a.32.32,0,0,1-.37.37h-.36a.34.34,0,0,1-.38-.37Z" transform="translate(-53.87 -244.48)"/><path class="cls-1" d="M137.37,297.69l.12-.16c.15-.2.3-.21.52-.08a2.58,2.58,0,0,0,1.42.47c.57,0,1-.28,1-.77,0-1.13-3-.75-3-2.7,0-1.1,1-1.67,2.09-1.67a2.87,2.87,0,0,1,1.6.45.32.32,0,0,1,.12.5l-.1.17c-.11.2-.28.23-.5.12a2.38,2.38,0,0,0-1.18-.33c-.54,0-1,.24-1,.73,0,1.16,3,.75,3,2.71,0,1-.83,1.7-2.07,1.7a3.19,3.19,0,0,1-1.94-.63.33.33,0,0,1-.09-.51" transform="translate(-53.87 -244.48)"/><path class="cls-1" d="M129.92,262.65a38.34,38.34,0,0,1-5.77-2.52c-2.59,3.89-6.41,9.65-6.71,10.22h-.09V252.26h-6.42v30h6.42v-6.43l1.61-2.07,5,8.5h7.91L123.44,270Z" transform="translate(-53.87 -244.48)"/><path class="cls-1" d="M154.43,261.14a7.43,7.43,0,0,0-6.38,3.34h-.13l-.15-3a15.64,15.64,0,0,1-5.6,2.31c0,1.59,0,3.2,0,4.36v14.08h6.43V270.36a4.59,4.59,0,0,1,.21-1.61,3.52,3.52,0,0,1,3.3-2.41c2.32,0,3.26,1.82,3.26,4.48v11.46h6.42V270.06c0-6.09-3.17-8.92-7.4-8.92" transform="translate(-53.87 -244.48)"/><path class="cls-1" d="M133.22,263.59v18.69h6.42V264.17a23.5,23.5,0,0,1-6.42-.58" transform="translate(-53.87 -244.48)"/></svg>