<svg id="Layer_1" data-name="Layer 1" xmlns="http://www.w3.org/2000/svg" viewBox="0 0 85.6 46.97"><defs><style>.cls-1{fill:#919191;}</style></defs><polygon class="cls-1" points="6.76 15.49 13.36 11.68 6.76 7.87 6.76 15.49"/><polygon class="cls-1" points="0.02 11.68 6.62 15.49 6.62 7.87 0.02 11.68"/><polygon class="cls-1" points="13.43 3.94 6.83 7.74 13.43 11.55 13.43 3.94"/><polygon class="cls-1" points="13.58 11.55 20.18 7.75 13.58 3.94 13.58 11.55"/><polygon class="cls-1" points="20.39 7.62 26.99 3.81 20.39 0 20.39 7.62"/><polygon class="cls-1" points="20.25 0 13.65 3.81 20.25 7.62 20.25 0"/><polygon class="cls-1" points="13.58 27.3 20.18 23.49 13.58 19.68 13.58 27.3"/><polygon class="cls-1" points="20.39 23.36 26.99 19.55 20.39 15.74 20.39 23.36"/><polygon class="cls-1" points="20.25 15.74 13.65 19.55 20.25 23.36 20.25 15.74"/><polygon class="cls-1" points="0 19.39 6.54 15.62 0 11.84 0 19.39"/><polygon class="cls-1" points="0.02 19.55 6.62 23.36 6.62 15.74 0.02 19.55"/><polygon class="cls-1" points="0 27.26 6.54 23.49 0 19.71 0 27.26"/><polygon class="cls-1" points="0.02 27.42 6.62 31.23 6.62 23.61 0.02 27.42"/><polygon class="cls-1" points="20.39 31.23 26.99 27.42 20.39 23.61 20.39 31.23"/><polygon class="cls-1" points="20.25 23.61 13.65 27.42 20.25 31.23 20.25 23.61"/><polygon class="cls-1" points="0.02 35.29 6.62 39.1 6.62 31.48 0.02 35.29"/><polygon class="cls-1" points="13.58 43.04 20.18 39.23 13.58 35.42 13.58 43.04"/><polygon class="cls-1" points="27.21 43.04 33.81 39.23 27.21 35.42 27.21 43.04"/><polygon class="cls-1" points="34.02 39.1 40.62 35.29 34.02 31.48 34.02 39.1"/><polygon class="cls-1" points="33.88 31.48 27.28 35.29 33.88 39.1 33.88 31.48"/><polygon class="cls-1" points="27.06 19.68 20.46 23.49 27.06 27.3 27.06 19.68"/><polygon class="cls-1" points="34.02 31.23 40.62 27.42 34.02 23.61 34.02 31.23"/><polygon class="cls-1" points="40.7 27.55 34.1 31.36 40.7 35.17 40.7 27.55"/><polygon class="cls-1" points="34.02 23.36 40.62 19.55 34.02 15.74 34.02 23.36"/><polygon class="cls-1" points="40.7 19.68 34.1 23.49 40.7 27.3 40.7 19.68"/><polygon class="cls-1" points="27.21 11.55 33.81 7.75 27.21 3.94 27.21 11.55"/><polygon class="cls-1" points="27.06 3.94 20.46 7.74 27.06 11.55 27.06 3.94"/><polygon class="cls-1" points="34.02 15.49 40.62 11.68 34.02 7.87 34.02 15.49"/><polygon class="cls-1" points="33.88 7.87 27.28 11.68 33.88 15.49 33.88 7.87"/><polygon class="cls-1" points="40.7 11.81 34.1 15.62 40.7 19.43 40.7 11.81"/><polygon class="cls-1" points="20.39 46.97 26.99 43.16 20.39 39.35 20.39 46.97"/><polygon class="cls-1" points="20.25 39.35 13.65 43.16 20.25 46.97 20.25 39.35"/><polygon class="cls-1" points="27.06 35.42 20.46 39.23 27.06 43.04 27.06 35.42"/><polygon class="cls-1" points="0 35.13 6.54 31.36 0 27.58 0 35.13"/><polygon class="cls-1" points="64.06 11.48 68.84 8.72 64.06 5.96 64.06 11.48"/><path class="cls-1" d="M451.75,366.61h-.06l-3.9,2.25V385.8c0,.61.23.87.84.87h0l3.9-2.25V367.47c0-.6-.2-.86-.81-.86" transform="translate(-383.72 -354.8)"/><path class="cls-1" d="M437.92,366.61h-6.25c-.61,0-.84.26-.84.86V385.8c0,.61.23.87.84.87h0l3.91-2.25V379.6h2.31c5.44,0,7.35-2.46,7.35-5v-3.1c0-2.48-1.91-4.94-7.35-4.94m2.64,7.2c0,1.33-1.22,1.88-2.64,1.88h-2.31v-5.18h2.31c1.42,0,2.64.55,2.64,1.88Z" transform="translate(-383.72 -354.8)"/><path class="cls-1" d="M468.51,378.21h0l-3.79,2.18v.53c0,1.33-1,1.88-2.43,1.88s-2.4-.55-2.4-1.88v-8.57c0-1.33,1-1.88,2.4-1.88s2.43.55,2.43,1.88v.49c0,.61.23.87.84.87h0l3.76-2.17v0c0-2.49-1.68-4.95-7.12-4.95s-7.12,2.46-7.12,4.95v10.25c0,2.48,1.68,4.94,7.12,4.94s7.12-2.46,7.12-4.94v-2.69c0-.6-.2-.86-.81-.86" transform="translate(-383.72 -354.8)"/></svg>