<svg id="Layer_1" data-name="Layer 1" xmlns="http://www.w3.org/2000/svg" xmlns:xlink="http://www.w3.org/1999/xlink" viewBox="0 0 173.37 46.99"><defs><style>.cls-1{fill:#919191;}.cls-2{clip-path:url(#clip-path);}.cls-3{clip-path:url(#clip-path-2);}.cls-4{clip-path:url(#clip-path-3);}.cls-5{clip-path:url(#clip-path-4);}.cls-6{clip-path:url(#clip-path-5);}</style><clipPath id="clip-path" transform="translate(-54.21 -344.23)"><path class="cls-1" d="M69,358.22v10.86a5.4,5.4,0,1,1-10.76,0V358.22a2,2,0,0,0-4,0v10.86c0,5.8,4,9.67,9.43,9.67s9.43-3.87,9.43-9.67V358.22a2,2,0,0,0-4,0"/></clipPath><clipPath id="clip-path-2" transform="translate(-54.21 -344.23)"><path class="cls-1" d="M76.58,352.7v18.46c0,4.37,2.39,7.13,6.54,7.13h3.53a1.94,1.94,0,0,0,0-3.87h-3c-2.07,0-3-.69-3-2.76v-11.6h6a1.93,1.93,0,0,0,0-3.86h-6v-3.5a2,2,0,1,0-4,0"/></clipPath><clipPath id="clip-path-3" transform="translate(-54.21 -344.23)"><path class="cls-1" d="M101.25,346.25l0,.09V377a2,2,0,0,0,4,0l0,0V346.25a2,2,0,1,0-4,0"/></clipPath><clipPath id="clip-path-4" transform="translate(-54.21 -344.23)"><path class="cls-1" d="M92.32,358l0,.08v19a2,2,0,0,0,4-.08V358a2,2,0,1,0-4,0"/></clipPath><clipPath id="clip-path-5" transform="translate(-54.21 -344.23)"><path class="cls-1" d="M110.18,358v19a2,2,0,1,0,4,0l0,0V358a2,2,0,0,0-4,0"/></clipPath></defs><path class="cls-1" d="M168.5,355.73A11.51,11.51,0,1,1,157,367.24a11.33,11.33,0,0,1,11.47-11.51m0,19.15c4.19,0,7.23-3.13,7.23-7.64s-3-7.64-7.23-7.64-7.23,3.13-7.23,7.64,3,7.64,7.23,7.64" transform="translate(-54.21 -344.23)"/><path class="cls-1" d="M200.09,356.2a2,2,0,0,0-2,2v10.86a5.4,5.4,0,1,1-10.77,0V358.22a2,2,0,0,0-4,0v10.86c0,5.8,4,9.67,9.44,9.67s9.43-3.87,9.43-9.67V358.22a2,2,0,0,0-2-2" transform="translate(-54.21 -344.23)"/><path class="cls-1" d="M209,389.11V369.29c0-6.08,3.23-9,7.1-9,4.33,0,7.38,3.18,7.38,7.7s-2.91,7.6-7.29,7.6a11,11,0,0,1-5.57-1.93,8.43,8.43,0,0,0,7.75,5.08c4.39,0,9.16-4.07,9.16-10.25,0-6.54-4.24-12.07-11.43-12.07-6.5,0-11.15,4.88-11.15,12.17V389.2a2,2,0,0,0,4,0v-.09" transform="translate(-54.21 -344.23)"/><path class="cls-1" d="M140.77,377.25c0,8.3-5.07,12.26-11.57,12.26a23.14,23.14,0,0,1-7.28-1.29l1-3.68a23.53,23.53,0,0,0,6.13,1.1c3.63,0,7.69-1.62,7.69-7v-9.31c0-6.09-3.22-9-7.1-9-4.33,0-7.37,3.18-7.37,7.7s2.9,7.6,7.28,7.6a11,11,0,0,0,5.58-1.93,8.43,8.43,0,0,1-7.75,5.08c-4.39,0-9.17-4.07-9.17-10.24,0-6.55,4.24-12.08,11.43-12.08,6.5,0,11.16,4.89,11.16,12.17v8.66" transform="translate(-54.21 -344.23)"/><path class="cls-1" d="M154.22,356h-.14a6.29,6.29,0,0,0-5.75,3h-.09v-1h0a1.93,1.93,0,0,0-3.85,0h0v19a2,2,0,1,0,4,0v-8.75c0-5.7,2.09-8.15,5.68-8.37h.12a1.94,1.94,0,1,0,0-3.87" transform="translate(-54.21 -344.23)"/><path class="cls-1" d="M69,358.22v10.86a5.4,5.4,0,1,1-10.76,0V358.22a2,2,0,0,0-4,0v10.86c0,5.8,4,9.67,9.43,9.67s9.43-3.87,9.43-9.67V358.22a2,2,0,0,0-4,0" transform="translate(-54.21 -344.23)"/><g class="cls-2"><rect class="cls-1" y="11.97" width="18.87" height="22.55"/></g><path class="cls-1" d="M76.58,352.7v18.46c0,4.37,2.39,7.13,6.54,7.13h3.53a1.94,1.94,0,0,0,0-3.87h-3c-2.07,0-3-.69-3-2.76v-11.6h6a1.93,1.93,0,0,0,0-3.86h-6v-3.5a2,2,0,1,0-4,0" transform="translate(-54.21 -344.23)"/><g class="cls-3"><rect class="cls-1" x="22.38" y="6.44" width="12" height="27.62"/></g><path class="cls-1" d="M101.25,346.25l0,.09V377a2,2,0,0,0,4,0l0,0V346.25a2,2,0,1,0-4,0" transform="translate(-54.21 -344.23)"/><g class="cls-4"><rect class="cls-1" x="47.02" width="4.06" height="34.76"/></g><path class="cls-1" d="M92.32,358l0,.08v19a2,2,0,0,0,4-.08V358a2,2,0,1,0-4,0" transform="translate(-54.21 -344.23)"/><g class="cls-5"><rect class="cls-1" x="38.09" y="11.76" width="4.05" height="23"/></g><path class="cls-1" d="M110.18,358v19a2,2,0,1,0,4,0l0,0V358a2,2,0,0,0-4,0" transform="translate(-54.21 -344.23)"/><g class="cls-6"><rect class="cls-1" x="55.96" y="11.76" width="4.05" height="23"/></g></svg>