<svg id="Layer_1" data-name="Layer 1" xmlns="http://www.w3.org/2000/svg" viewBox="0 0 979.53 1000"><defs></defs><path d="M662.68,634.11c-174.65,0-316.84-142-316.84-316.7S488,.5,662.68.5,979.52,142.62,979.52,317.41,837.39,634.11,662.68,634.11Zm0-545.42c-126,0-228.58,102.62-228.58,228.72S536.64,545.92,662.68,545.92,891.26,443.37,891.26,317.41,788.71,88.69,662.68,88.69Z" transform="translate(0.02 -0.5)"/><path d="M189.93,1000.5C85.15,1000.5,0,915.33,0,810.62s85.17-190,190-190,190,85.24,190,190S294.64,1000.5,189.93,1000.5Zm0-306.35c-64.2,0-116.41,52.27-116.41,116.47S125.73,927,189.93,927s116.41-52.21,116.41-116.34S254.13,694.15,189.93,694.15Z" transform="translate(0.02 -0.5)"/></svg>