<svg aria-hidden="true" focusable="false" role="img" xmlns="http://www.w3.org/2000/svg" viewBox="0 0 448 512">
    <path fill="currentColor" d="M 100.28 448 H 7.4 V 148.9 H 100.28 Z M 53.79 108.1 C 24.09 108.1 0 83.5 0 53.8 A 53.79 53.79 0 0 1 107.58 53.8 C 107.58 83.5 83.48 108.1 53.79 108.1 Z M 447.9 448 H 355.22 V 302.4 C 355.22 267.7 354.52 223.2 306.93 223.2 C 258.64 223.2 251.24 260.9 251.24 299.9 V 448 H 158.46 V 148.9 H 247.54 V 189.7 H 248.84 C 261.24 166.2 291.53 141.4 336.72 141.4 C 430.72 141.4 448 203.3 448 283.7 V 448 Z"></path>
</svg>