<svg class="logo" xmlns="http://www.w3.org/2000/svg" xmlns:xlink="http://www.w3.org/1999/xlink" width="27.096" height="159.145" viewBox="0 0 27.096 159.145">

  <g transform="translate(0 159.145) rotate(-90)">
    <g id="Group_180" data-name="Group 180" transform="translate(0 8.976)">
      <path id="Path_178" data-name="Path 178" d="M0,0V3.444H5.115V17.638H9.04V3.444h5.093V0Z"/>
    </g>
    <g id="Group_182" data-name="Group 182" clip-path="url(#clip-path)">
      <g id="Group_181" data-name="Group 181" transform="translate(15.549 8.976)">
        <path id="Path_179" data-name="Path 179" d="M11.755,17.638H8V10.777c0-2.414-.07-3.393-1.81-3.393a2.291,2.291,0,0,0-2.433,2.5v7.75H0V0H3.757V5.626A4.811,4.811,0,0,1,7.367,4.18a4.517,4.517,0,0,1,3.652,1.558,4.865,4.865,0,0,1,.737,3.213Z"/>
      </g>
    </g>
    <path id="Path_181" data-name="Path 181" d="M0,13.122H3.78V0H0Z" transform="translate(28.909 13.492)"/>
    <g id="Group_184" data-name="Group 184" clip-path="url(#clip-path)">
      <g id="Group_183" data-name="Group 183" transform="translate(34.303 13.156)">
        <path id="Path_182" data-name="Path 182" d="M11.779,13.459H8v-7.9C8,3.844,7.515,3.2,6.214,3.2a2.29,2.29,0,0,0-2.433,2.5v7.75H0V.336H3.709v1.2A4.852,4.852,0,0,1,7.392,0c2.911,0,4.387,1.541,4.387,4.579Z"/>
      </g>
    </g>
    <g id="Group_185" data-name="Group 185" transform="translate(47.63 8.976)">
      <path id="Path_184" data-name="Path 184" d="M0,0V17.638H3.684V13.492L4.76,12.336l2.979,5.3h4.513l-4.8-8.181,4.641-4.942H7.476L3.684,8.756V0Z"/>
    </g>
    <g id="Group_191" data-name="Group 191" clip-path="url(#clip-path)">
      <g id="Group_186" data-name="Group 186" transform="translate(66.943 8.519)">
        <path id="Path_185" data-name="Path 185" d="M8.279,18.577C3.017,18.577,0,15.192,0,9.289,0,3.3,3.05,0,8.591,0c4.523,0,7.26,2.313,7.509,6.347l.013.2H12.25l-.023-.158c-.275-1.861-1.533-2.844-3.635-2.844C5.585,3.541,4,5.528,4,9.289c0,3.675,1.589,5.7,4.474,5.7a3.553,3.553,0,0,0,3.806-3.045l.029-.15h3.831l-.013.2c-.272,4-3.351,6.586-7.846,6.586"/>
      </g>
      <g id="Group_187" data-name="Group 187" transform="translate(84.764 13.13)">
        <path id="Path_186" data-name="Path 186" d="M3.78,13.484H0V.361H3.541V2.028A3.883,3.883,0,0,1,7.03,0a3.6,3.6,0,0,1,.531.027L7.719.05v3.8H6.406c-1.766,0-2.625.882-2.625,2.7Z"/>
      </g>
      <g id="Group_188" data-name="Group 188" transform="translate(93.373 13.035)">
        <path id="Path_187" data-name="Path 187" d="M6.189,14.013C2.371,14.013,0,11.3,0,6.935,0,2.658,2.353,0,6.142,0c4.01,0,6.308,2.562,6.308,7.031,0,.286,0,.582-.025.9l-.013.17h-8.5c.137,1.764.959,2.658,2.445,2.658A2.082,2.082,0,0,0,8.518,9.454l.049-.111h3.769l-.059.233a5.884,5.884,0,0,1-6.088,4.436M3.92,5.5H8.542A2.147,2.147,0,0,0,6.213,3.229C4.892,3.229,4.1,4.013,3.92,5.5"/>
      </g>
      <g id="Group_189" data-name="Group 189" transform="translate(107 13.035)">
        <path id="Path_188" data-name="Path 188" d="M4.052,14.037C1.477,14.037,0,12.49,0,9.793,0,7.269,1.3,6.038,4.48,5.551c.531-.083.991-.14,1.39-.19,1.659-.208,2.008-.28,2.008-1.069S7.559,3.037,5.972,3.037c-.89,0-1.953.242-1.953,1.4v.375H.457V4.389C.457,1.64,2.475,0,5.854,0c3.682,0,5.709,1.346,5.709,3.789v7.252c0,.964.161,1.385.618,1.613l.1.05v.876H8.432l-.052-.1a3.531,3.531,0,0,1-.36-1.159,4.855,4.855,0,0,1-3.968,1.714M7.925,7.41a10.476,10.476,0,0,1-2.125.6c-.267.052-.5.1-.687.155-1.1.319-1.476.7-1.476,1.529a1.325,1.325,0,0,0,1.5,1.352A2.533,2.533,0,0,0,7.925,8.328Z"/>
      </g>
      <g id="Group_190" data-name="Group 190" transform="translate(119.8 10.009)">
        <path id="Path_189" data-name="Path 189" d="M5.276,16.775c-3.058,0-3.6-1.229-3.6-3.812V6.255H0V3.483H1.681V0H5.438V3.483H7.407V6.255H5.438v6.876c0,.49.04.631.943.631H7.407V16.7l-.179,0c-.487.014-.9.031-1.225.048-.309.014-.552.026-.726.026"/>
      </g>
    </g>
    <path id="Path_191" data-name="Path 191" d="M0,13.122H3.779V0H0Z" transform="translate(128.637 13.492)"/>
    <g id="Group_192" data-name="Group 192" transform="translate(133.578 13.492)">
      <path id="Path_192" data-name="Path 192" d="M9.153,0l-2.5,8.666L4.173,0H0L4.72,13.122H8.461L13.158,0Z"/>
    </g>
    <g id="Group_198" data-name="Group 198" clip-path="url(#clip-path)">
      <g id="Group_193" data-name="Group 193" transform="translate(146.696 13.035)">
        <path id="Path_193" data-name="Path 193" d="M6.189,14.013C2.371,14.013,0,11.3,0,6.935,0,2.658,2.353,0,6.14,0c4.011,0,6.31,2.562,6.31,7.031,0,.286,0,.582-.025.9l-.013.17h-8.5c.137,1.764.959,2.658,2.445,2.658A2.082,2.082,0,0,0,8.518,9.454l.047-.111h3.771l-.06.233a5.881,5.881,0,0,1-6.087,4.436M3.92,5.5H8.541A2.146,2.146,0,0,0,6.212,3.229c-1.32,0-2.11.784-2.292,2.272"/>
      </g>
      <g id="Group_194" data-name="Group 194" transform="translate(61.019 22.596)">
        <path id="Path_194" data-name="Path 194" d="M4.451,2.227A2.226,2.226,0,1,1,2.226,0,2.225,2.225,0,0,1,4.451,2.227"/>
      </g>
      <g id="Group_195" data-name="Group 195" transform="translate(61.258 8.976)">
        <path id="Path_195" data-name="Path 195" d="M.882,12.828a3.2,3.2,0,0,1,1.1-.208,3.206,3.206,0,0,1,1.1.208L3.972,5.3V0H0V5.323Z"/>
      </g>
      <g id="Group_196" data-name="Group 196" transform="translate(32.566 0)">
        <path id="Path_196" data-name="Path 196" d="M3.59,7.179a3.59,3.59,0,1,1,3.59-3.588A3.594,3.594,0,0,1,3.59,7.179M3.59,1a2.59,2.59,0,1,0,2.59,2.592A2.594,2.594,0,0,0,3.59,1"/>
      </g>
      <g id="Group_197" data-name="Group 197" transform="translate(28.647 7.026)">
        <path id="Path_197" data-name="Path 197" d="M2.152,4.3A2.152,2.152,0,1,1,4.3,2.153,2.155,2.155,0,0,1,2.152,4.3m0-3.471A1.319,1.319,0,1,0,3.472,2.153,1.32,1.32,0,0,0,2.152.834"/>
      </g>
    </g>
  </g>
</svg>
