<?xml version="1.0" encoding="utf-8"?>
<!-- Generator: Adobe Illustrator 24.2.1, SVG Export Plug-In . SVG Version: 6.00 Build 0)  -->
<svg version="1.0" id="Layer_1" xmlns="http://www.w3.org/2000/svg" xmlns:xlink="http://www.w3.org/1999/xlink" x="0px" y="0px"
	 viewBox="0 0 90 18" style="enable-background:new 0 0 90 18;" xml:space="preserve">
<style type="text/css">
	.st0{fill:#FFCC00;}
	.st1{fill:#FFFFFF;}
</style>
<g>
	<path class="st0" d="M5.1,16.4H2.9v-8H0V6.4h8v1.9H5.1V16.4z"/>
</g>
<g>
	<path class="st0" d="M15.4,16.4h-2.1v-3.9c0-1.4,0-1.9-1-1.9c-0.8,0-1.4,0.5-1.4,1.4v4.4H8.8v-10h2.1v3.2c0.5-0.5,1.2-0.8,2-0.8
		c0.9,0,1.6,0.3,2.1,0.9c0.4,0.5,0.4,1.2,0.4,1.8V16.4z"/>
</g>
<g>
	<path class="st0" d="M18.5,16.4h-2.1V9h2.1V16.4z"/>
</g>
<g>
	<path class="st0" d="M26.1,16.4h-2.1v-4.5c0-1-0.3-1.3-1-1.3c-0.8,0-1.4,0.5-1.4,1.4v4.4h-2.1V9h2.1v0.7c0.5-0.6,1.2-0.9,2.1-0.9
		c1.6,0,2.5,0.9,2.5,2.6V16.4z"/>
</g>
<g>
	<path class="st0" d="M33.9,16.4h-2.6l-1.7-3L29,14v2.3h-2.1v-10H29v5L31.2,9h2.6l-2.6,2.8L33.9,16.4z"/>
</g>
<g>
	<path class="st1" d="M42.5,16.7c-3,0-4.7-1.9-4.7-5.3c0-3.4,1.7-5.3,4.9-5.3c2.6,0,4.1,1.3,4.2,3.6l0,0.1h-2.2l0-0.1
		c-0.2-1.1-0.9-1.6-2.1-1.6c-1.7,0-2.6,1.1-2.6,3.3c0,2.1,0.9,3.2,2.5,3.2c1.2,0,1.9-0.6,2.2-1.7l0-0.1H47l0,0.1
		C46.8,15.2,45.1,16.7,42.5,16.7z"/>
</g>
<g>
	<path class="st1" d="M50.1,16.4h-2.1V9h2v0.9c0.5-0.8,1.1-1.1,2-1.1c0.1,0,0.2,0,0.3,0l0.1,0v2.2h-0.7c-1,0-1.5,0.5-1.5,1.5V16.4z"
		/>
</g>
<g>
	<path class="st1" d="M56.3,16.6c-2.2,0-3.5-1.5-3.5-4c0-2.4,1.3-3.9,3.5-3.9c2.3,0,3.6,1.4,3.6,4c0,0.2,0,0.3,0,0.5l0,0.1H55
		c0.1,1,0.5,1.5,1.4,1.5c0.6,0,1-0.2,1.2-0.7l0-0.1h2.1l0,0.1C59.3,15.7,58,16.6,56.3,16.6z M55,11.8h2.6c-0.1-0.8-0.5-1.3-1.3-1.3
		C55.6,10.5,55.1,11,55,11.8z"/>
</g>
<g>
	<path class="st1" d="M62.8,16.6c-1.5,0-2.3-0.9-2.3-2.4c0-1.4,0.7-2.1,2.5-2.4c0.3,0,0.6-0.1,0.8-0.1c0.9-0.1,1.1-0.2,1.1-0.6
		c0-0.4-0.2-0.7-1.1-0.7c-0.5,0-1.1,0.1-1.1,0.8v0.2h-2v-0.2c0-1.6,1.1-2.5,3.1-2.5c2.1,0,3.2,0.8,3.2,2.1V15c0,0.5,0.1,0.8,0.3,0.9
		l0.1,0v0.5h-2.2l0-0.1c-0.1-0.2-0.2-0.4-0.2-0.7C64.5,16.3,63.8,16.6,62.8,16.6z M65,12.9c-0.5,0.2-0.9,0.3-1.2,0.3
		c-0.2,0-0.3,0.1-0.4,0.1c-0.6,0.2-0.8,0.4-0.8,0.9c0,0.5,0.3,0.8,0.8,0.8c1,0,1.6-0.6,1.6-1.5V12.9z"/>
</g>
<g>
	<path class="st1" d="M70.7,16.5c-1.7,0-2-0.7-2-2.2v-3.8h-1V9h1V7h2.1v2h1.1v1.6h-1.1v3.9c0,0.3,0,0.4,0.5,0.4h0.6v1.7l-0.1,0
		c-0.3,0-0.5,0-0.7,0C71,16.5,70.8,16.5,70.7,16.5z"/>
</g>
<g>
	<path class="st1" d="M74.9,16.4h-2.1V9h2.1V16.4z"/>
</g>
<g>
	<path class="st1" d="M80.3,16.4h-2.1L75.5,9h2.4l1.4,4.9L80.7,9H83L80.3,16.4z"/>
</g>
<g>
	<path class="st1" d="M86.5,16.6c-2.2,0-3.5-1.5-3.5-4c0-2.4,1.3-3.9,3.5-3.9c2.3,0,3.6,1.4,3.6,4c0,0.2,0,0.3,0,0.5l0,0.1h-4.8
		c0.1,1,0.5,1.5,1.4,1.5c0.6,0,1-0.2,1.2-0.7l0-0.1h2.1l0,0.1C89.5,15.7,88.2,16.6,86.5,16.6z M85.2,11.8h2.6
		c-0.1-0.8-0.5-1.3-1.3-1.3C85.7,10.5,85.3,11,85.2,11.8z"/>
</g>
<g>
	<g>
		<path class="st0" d="M37,15.4c0,0.7-0.6,1.3-1.3,1.3c-0.7,0-1.3-0.6-1.3-1.3c0-0.7,0.6-1.3,1.3-1.3C36.5,14.1,37,14.7,37,15.4z"/>
	</g>
	<path class="st0" d="M35.1,13.7c0.2-0.1,0.4-0.1,0.6-0.1s0.4,0,0.6,0.1l0.5-4.3v-3h-2.2l0,3L35.1,13.7z"/>
</g>
<g>
	<path class="st0" d="M20.4,5.4c-1.1,0-2-0.9-2-2c0-1.1,0.9-2,2-2c1.1,0,2,0.9,2,2C22.5,4.5,21.6,5.4,20.4,5.4z M20.4,1.9
		c-0.8,0-1.5,0.7-1.5,1.5c0,0.8,0.7,1.5,1.5,1.5s1.5-0.7,1.5-1.5C21.9,2.6,21.3,1.9,20.4,1.9z"/>
	<path class="st0" d="M17.4,7.7c-0.7,0-1.2-0.5-1.2-1.2c0-0.7,0.5-1.2,1.2-1.2c0.7,0,1.2,0.5,1.2,1.2C18.6,7.2,18.1,7.7,17.4,7.7z
		 M17.4,5.8c-0.4,0-0.7,0.3-0.7,0.7c0,0.4,0.3,0.7,0.7,0.7c0.4,0,0.7-0.3,0.7-0.7C18.2,6.1,17.8,5.8,17.4,5.8z"/>
</g>
</svg>
